<?xml version="1.0" standalone="no"?>
<!DOCTYPE svg PUBLIC "-//W3C//DTD SVG 20010904//EN"
 "http://www.w3.org/TR/2001/REC-SVG-20010904/DTD/svg10.dtd">
<svg version="1.0" xmlns="http://www.w3.org/2000/svg"
 width="260.000000pt" height="260.000000pt" viewBox="0 0 260.000000 260.000000"
 preserveAspectRatio="xMidYMid meet">
<metadata>
Created by potrace 1.11, written by Peter Selinger 2001-2013
</metadata>
<g transform="translate(0.000000,260.000000) scale(0.100000,-0.100000)"
fill="#000000" stroke="none">
<path d="M1261 2544 c-24 -30 -25 -38 -11 -65 7 -13 21 -19 45 -19 53 0 73 52
35 90 -27 27 -44 25 -69 -6z"/>
<path d="M962 2508 c-31 -31 0 -98 44 -98 29 0 44 19 44 55 0 38 -16 55 -50
55 -14 0 -31 -5 -38 -12z"/>
<path d="M1548 2495 c-17 -39 0 -79 36 -83 32 -4 55 20 56 59 0 33 -17 49 -52
49 -21 0 -32 -7 -40 -25z"/>
<path d="M692 2388 c-15 -15 -16 -53 -2 -79 23 -41 90 -10 90 42 0 32 -17 49
-50 49 -14 0 -31 -5 -38 -12z"/>
<path d="M1820 2379 c-25 -45 15 -97 65 -85 28 7 42 54 25 85 -15 29 -75 29
-90 0z"/>
<path d="M461 2201 c-18 -11 -19 -65 -1 -85 28 -34 90 -6 90 41 0 40 -54 66
-89 44z"/>
<path d="M2062 2198 c-29 -29 -6 -98 33 -98 32 0 55 25 55 60 0 43 -58 68 -88
38z"/>
<path d="M284 1952 c-38 -24 -16 -102 29 -102 31 0 44 11 52 42 11 43 -44 85
-81 60z"/>
<path d="M2246 1944 c-19 -18 -21 -65 -4 -82 31 -31 88 1 88 51 0 42 -54 62
-84 31z"/>
<path d="M1025 1798 c-3 -7 -4 -224 -3 -483 l3 -470 60 0 60 0 6 185 c3 102 6
186 7 188 1 1 33 2 70 2 81 0 73 6 232 -195 153 -195 142 -185 222 -185 48 0
68 4 68 13 0 6 -68 96 -151 199 -91 114 -149 195 -147 205 2 10 13 23 26 29
118 59 177 281 104 392 -30 45 -118 101 -184 117 -82 19 -366 21 -373 3z m365
-134 c56 -23 80 -65 80 -143 0 -85 -25 -133 -82 -156 -58 -23 -217 -33 -229
-14 -10 16 -12 312 -2 322 14 14 192 7 233 -9z"/>
<path d="M164 1645 c-21 -32 -12 -67 21 -85 22 -12 27 -11 45 5 29 26 34 53
16 80 -22 33 -60 33 -82 0z"/>
<path d="M2352 1658 c-19 -19 -14 -73 7 -92 17 -16 23 -16 48 -4 21 10 29 21
31 46 2 18 -2 40 -9 48 -14 17 -61 18 -77 2z"/>
<path d="M91 1405 c-75 -64 -61 -185 26 -221 126 -53 224 110 128 212 -28 29
-39 34 -78 34 -34 0 -53 -6 -76 -25z"/>
<path d="M2350 1403 c-54 -48 -59 -143 -10 -192 94 -93 242 6 200 134 -27 83
-128 113 -190 58z"/>
<path d="M172 1030 c-26 -24 -28 -47 -6 -78 20 -28 51 -28 75 1 24 28 24 39
-2 71 -25 31 -38 33 -67 6z"/>
<path d="M2357 1032 c-35 -38 -9 -102 41 -102 43 0 58 78 20 104 -29 21 -41
20 -61 -2z"/>
<path d="M270 729 c-17 -31 -3 -78 25 -85 49 -12 84 30 66 80 -9 21 -17 26
-45 26 -25 0 -38 -6 -46 -21z"/>
<path d="M2242 738 c-17 -17 -15 -64 4 -82 18 -19 38 -20 65 -6 22 12 27 68 7
88 -15 15 -61 15 -76 0z"/>
<path d="M469 500 c-25 -15 -32 -58 -14 -86 19 -29 55 -31 78 -6 23 26 21 55
-6 80 -26 24 -34 26 -58 12z"/>
<path d="M2072 494 c-15 -10 -22 -25 -22 -48 0 -38 15 -56 46 -56 50 0 72 62
34 100 -24 24 -29 24 -58 4z"/>
<path d="M692 298 c-16 -16 -16 -70 0 -86 33 -33 88 -4 88 46 0 40 -60 68 -88
40z"/>
<path d="M1825 290 c-27 -30 -10 -84 29 -88 40 -5 69 24 62 62 -10 49 -58 63
-91 26z"/>
<path d="M966 171 c-26 -29 -17 -73 17 -85 19 -7 34 -7 45 0 21 13 28 70 11
90 -16 20 -53 17 -73 -5z"/>
<path d="M1549 166 c-17 -36 -4 -74 28 -82 50 -13 79 33 52 82 -17 33 -65 33
-80 0z"/>
<path d="M1273 139 c-42 -15 -38 -75 7 -99 42 -22 85 33 61 78 -13 24 -39 32
-68 21z"/>
</g>
</svg>
